<svg width="16" height="16" viewBox="0 0 16 16" fill="none" xmlns="http://www.w3.org/2000/svg">
<g id="Workflow, Status &#38; UI/02 Regular/ellipsis-h">
<path id="Icon" fill-rule="evenodd" clip-rule="evenodd" d="M9.5 8C9.5 8.82812 8.82812 9.5 8 9.5C7.17188 9.5 6.5 8.82812 6.5 8C6.5 7.17188 7.17188 6.5 8 6.5C8.82812 6.5 9.5 7.17188 9.5 8ZM13.25 6.5C12.4219 6.5 11.75 7.17188 11.75 8C11.75 8.82812 12.4219 9.5 13.25 9.5C14.0781 9.5 14.75 8.82812 14.75 8C14.75 7.17188 14.0781 6.5 13.25 6.5ZM2.75 6.5C1.92188 6.5 1.25 7.17188 1.25 8C1.25 8.82812 1.92188 9.5 2.75 9.5C3.57812 9.5 4.25 8.82812 4.25 8C4.25 7.17188 3.57812 6.5 2.75 6.5Z" fill="#6B7280"/>
</g>
</svg>
