<svg width="16" height="16" viewBox="0 0 16 16" fill="none" xmlns="http://www.w3.org/2000/svg">
<g id="Left Icon">
<path id="Icon" fill-rule="evenodd" clip-rule="evenodd" d="M0 2.5V13.5C0 14.3284 0.671562 15 1.5 15H14.5C15.3284 15 16 14.3284 16 13.5V2.5C16 1.67156 15.3284 1 14.5 1H1.5C0.671562 1 0 1.67156 0 2.5ZM14.75 9.5H6.16666V6.5H14.75V9.5ZM14.75 10.75V13.375C14.75 13.5821 14.5821 13.75 14.375 13.75H6.16666V10.75H14.75ZM1.25 6.5H4.91666V9.5H1.25V6.5ZM6.16666 5.25V2.25H14.375C14.5821 2.25 14.75 2.41791 14.75 2.625V5.25H6.16666ZM4.91666 2.25V5.25H1.25V2.625C1.25 2.41791 1.41791 2.25 1.625 2.25H4.91666ZM1.25 10.75H4.91666V13.75H1.625C1.41791 13.75 1.25 13.5821 1.25 13.375V10.75Z" fill="#15181B"/>
</g>
</svg>
