<svg width="16" height="16" viewBox="0 0 16 16" fill="none" xmlns="http://www.w3.org/2000/svg">
<g id="Left Icon">
<path id="Icon" fill-rule="evenodd" clip-rule="evenodd" d="M10.25 13.5H10.75C10.8881 13.5 11 13.3881 11 13.25V4.75C11 4.61193 10.8881 4.5 10.75 4.5H10.25C10.1119 4.5 10 4.61193 10 4.75V13.25C10 13.3881 10.1119 13.5 10.25 13.5ZM5.25 13.5H5.75C5.88807 13.5 6 13.3881 6 13.25V4.75C6 4.61193 5.88807 4.5 5.75 4.5H5.25C5.11193 4.5 5 4.61193 5 4.75V13.25C5 13.3881 5.11193 13.5 5.25 13.5ZM14.75 2H11.5L10.45 0.6C10.1667 0.222291 9.72214 0 9.25 0H6.75C6.27786 0 5.83328 0.222291 5.55 0.6L4.5 2H1.25C1.11193 2 1 2.11193 1 2.25V2.75C1 2.88807 1.11193 3 1.25 3H2V14.5C2 15.3284 2.67157 16 3.5 16H12.5C13.3284 16 14 15.3284 14 14.5V3H14.75C14.8881 3 15 2.88807 15 2.75V2.25C15 2.11193 14.8881 2 14.75 2ZM6.35 1.2C6.44475 1.07448 6.59274 1.00049 6.75 1H9.25C9.40726 1.00049 9.55525 1.07448 9.65 1.2L10.25 2H5.75L6.35 1.2ZM13 14.5C13 14.7761 12.7761 15 12.5 15H3.5C3.22386 15 3 14.7761 3 14.5V3H13V14.5ZM7.75 13.5H8.25C8.38807 13.5 8.5 13.3881 8.5 13.25V4.75C8.5 4.61193 8.38807 4.5 8.25 4.5H7.75C7.61193 4.5 7.5 4.61193 7.5 4.75V13.25C7.5 13.3881 7.61193 13.5 7.75 13.5Z" fill="#15181B"/>
</g>
</svg>
