<svg width="16" height="16" viewBox="0 0 16 16" fill="none" xmlns="http://www.w3.org/2000/svg">
<g id="Left Icon">
<path id="Icon" fill-rule="evenodd" clip-rule="evenodd" d="M15.4143 1.75735L14.2427 0.585785C13.4617 -0.195246 12.1954 -0.195277 11.4143 0.585785L0.401231 11.5988L0.00476231 15.167C-0.0483002 15.6447 0.355387 16.0484 0.833012 15.9953L4.40126 15.5988L15.4143 4.58578C16.1953 3.80472 16.1953 2.53838 15.4143 1.75735ZM12.4394 6.14641L5.43754 13.1483V12.0625H3.93754V10.5625H2.85176L9.85361 3.56063L12.4394 6.14641ZM3.94214 14.6437L2.09854 14.8485L1.15151 13.9015L1.35636 12.0579L1.97676 11.4375H3.06254V12.9375H4.56254V14.0233L3.94214 14.6437ZM14.7071 3.87866L13.1465 5.43932L10.5607 2.85354L12.1214 1.29288C12.5121 0.902098 13.1447 0.902035 13.5356 1.29288L14.7071 2.46444C15.0979 2.85525 15.098 3.48778 14.7071 3.87866Z" fill="#15181B"/>
</g>
</svg>
