<svg width="16" height="16" viewBox="0 0 16 16" fill="none" xmlns="http://www.w3.org/2000/svg">
<g id="Left Icon">
<path id="Worfklow, Status &#38; UI/02 Regular/eye" fill-rule="evenodd" clip-rule="evenodd" d="M7.99998 4.88897C7.70558 4.89357 7.41335 4.94034 7.13221 5.02786C7.26225 5.25656 7.33149 5.51478 7.33332 5.77786C7.33332 6.63697 6.63687 7.33342 5.77776 7.33342C5.51468 7.33159 5.25646 7.26235 5.02776 7.1323C4.65772 8.41565 5.1504 9.79181 6.25086 10.5487C7.35133 11.3056 8.81266 11.2734 9.87873 10.4688C10.9448 9.66415 11.3764 8.26763 10.9502 7.00182C10.524 5.73601 9.33561 4.88494 7.99998 4.88897ZM15.9033 7.59453C14.3969 4.65536 11.4147 2.66675 7.99998 2.66675C4.58526 2.66675 1.60221 4.65675 0.0966515 7.5948C-0.0322172 7.84972 -0.0322172 8.15072 0.0966515 8.40564C1.60304 11.3448 4.58526 13.3334 7.99998 13.3334C11.4147 13.3334 14.3978 11.3434 15.9033 8.40536C16.0322 8.15044 16.0322 7.84944 15.9033 7.59453ZM7.99999 12.0001C5.25971 12.0001 2.74748 10.4723 1.39082 8.00008C2.74748 5.52786 5.25943 4.00008 7.99999 4.00008C10.7405 4.00008 13.2525 5.52786 14.6092 8.00008C13.2528 10.4723 10.7405 12.0001 7.99999 12.0001Z" fill="#15181B"/>
</g>
</svg>
