<?xml version="1.0" encoding="UTF-8"?>
<svg width="22px" height="20px" viewBox="0 0 22 20" version="1.1" xmlns="http://www.w3.org/2000/svg" xmlns:xlink="http://www.w3.org/1999/xlink">
    <!-- Generator: Sketch 59.1 (86144) - https://sketch.com -->
    <title>path</title>
    <desc>Created with Sketch.</desc>
    <g id="Styles" stroke="none" stroke-width="1" fill="none" fill-rule="evenodd">
        <g id="Iconography" transform="translate(-655.000000, -725.000000)">
            <g id="error-icon" transform="translate(656.000000, 726.000000)">
                <g id="path">
                    <path d="M9.90638377,0.0662046451 L19.6463859,17.447242 C19.6872023,17.5200787 19.6563334,17.5791246 19.5780159,17.5791246 L0.0869425807,17.5791246 C0.0083665396,17.5791246 -0.0233534294,17.522059 0.0185725722,17.447242 L9.75857474,0.0662046451 C9.79939108,-0.00663210597 9.86445777,-0.00861231937 9.90638377,0.0662046451 Z" id="editor_shape_design_triangle_circle_glyph" stroke="#FF4040" fill="#FF4040"></path>
                    <polygon id="Path" fill="#FFFFFF" points="11.074693 4.25142188 10.7081478 11.6613318 8.99760307 11.6613318 8.63105778 4.25142188"></polygon>
                    <path d="M9.85287541,15.5779985 C9.46189377,15.5779985 9.14422119,15.4721426 8.94873037,15.2339669 C8.72880319,14.9957912 8.63105778,14.6782237 8.63105778,14.2812642 C8.63105778,13.8578408 8.72880319,13.5402732 8.94873037,13.3020976 C9.16865754,13.0903858 9.46189377,12.98453 9.87731176,12.98453 C10.2682934,12.98453 10.5615296,13.0903858 10.7814568,13.3285615 C11.001384,13.5667372 11.0991294,13.8843048 11.0991294,14.2812642 C11.0991294,14.6782237 11.001384,14.9957912 10.7814568,15.2339669 C10.5370933,15.4456786 10.2438571,15.5779985 9.85287541,15.5779985 L9.85287541,15.5779985 Z" id="Path" fill="#FFFFFF"></path>
                </g>
            </g>
        </g>
    </g>
</svg>