<svg width="20" height="20" viewBox="0 0 20 20" fill="none" xmlns="http://www.w3.org/2000/svg">
<g id="Icon">
<path id="Icon_2" fill-rule="evenodd" clip-rule="evenodd" d="M7.03125 11.25H5.46875C5.21094 11.25 5 11.0391 5 10.7812V9.21875C5 8.96094 5.21094 8.75 5.46875 8.75H7.03125C7.28906 8.75 7.5 8.96094 7.5 9.21875V10.7812C7.5 11.0391 7.28906 11.25 7.03125 11.25ZM11.25 10.7812V9.21875C11.25 8.96094 11.0391 8.75 10.7812 8.75H9.21875C8.96094 8.75 8.75 8.96094 8.75 9.21875V10.7812C8.75 11.0391 8.96094 11.25 9.21875 11.25H10.7812C11.0391 11.25 11.25 11.0391 11.25 10.7812ZM15 10.7812V9.21875C15 8.96094 14.7891 8.75 14.5312 8.75H12.9688C12.7109 8.75 12.5 8.96094 12.5 9.21875V10.7812C12.5 11.0391 12.7109 11.25 12.9688 11.25H14.5312C14.7891 11.25 15 11.0391 15 10.7812ZM11.25 14.5312V12.9688C11.25 12.7109 11.0391 12.5 10.7812 12.5H9.21875C8.96094 12.5 8.75 12.7109 8.75 12.9688V14.5312C8.75 14.7891 8.96094 15 9.21875 15H10.7812C11.0391 15 11.25 14.7891 11.25 14.5312ZM7.5 14.5312V12.9688C7.5 12.7109 7.28906 12.5 7.03125 12.5H5.46875C5.21094 12.5 5 12.7109 5 12.9688V14.5312C5 14.7891 5.21094 15 5.46875 15H7.03125C7.28906 15 7.5 14.7891 7.5 14.5312ZM15 14.5312V12.9688C15 12.7109 14.7891 12.5 14.5312 12.5H12.9688C12.7109 12.5 12.5 12.7109 12.5 12.9688V14.5312C12.5 14.7891 12.7109 15 12.9688 15H14.5312C14.7891 15 15 14.7891 15 14.5312ZM18.75 4.375V18.125C18.75 19.1602 17.9102 20 16.875 20H3.125C2.08984 20 1.25 19.1602 1.25 18.125V4.375C1.25 3.33984 2.08984 2.5 3.125 2.5H5V0.46875C5 0.210938 5.21094 0 5.46875 0H7.03125C7.28906 0 7.5 0.210938 7.5 0.46875V2.5H12.5V0.46875C12.5 0.210938 12.7109 0 12.9688 0H14.5312C14.7891 0 15 0.210938 15 0.46875V2.5H16.875C17.9102 2.5 18.75 3.33984 18.75 4.375ZM16.875 17.8906V6.25H3.125V17.8906C3.125 18.0195 3.23047 18.125 3.35938 18.125H16.6406C16.7695 18.125 16.875 18.0195 16.875 17.8906Z" fill="#15181B"/>
</g>
</svg>
