<svg width="12" height="12" viewBox="0 0 12 12" fill="none" xmlns="http://www.w3.org/2000/svg">
<g id="Left Icon">
<path id="Icon" fill-rule="evenodd" clip-rule="evenodd" d="M11.9275 5.69583C10.7977 3.49146 8.56103 2 5.99999 2C3.43895 2 1.20166 3.4925 0.0724886 5.69604C-0.0241629 5.88723 -0.0241629 6.11298 0.0724886 6.30417C1.20228 8.50854 3.43895 10 5.99999 10C8.56103 10 10.7983 8.5075 11.9275 6.30396C12.0241 6.11277 12.0241 5.88702 11.9275 5.69583ZM5.99999 9C4.34313 9 2.99999 7.65685 2.99999 6C2.99999 4.34315 4.34313 3 5.99999 3C7.65684 3 8.99999 4.34315 8.99999 6C9.00038 6.79577 8.68443 7.55905 8.12174 8.12175C7.55904 8.68444 6.79576 9.00039 5.99999 9ZM5.99999 4C5.82147 4.00249 5.64411 4.02905 5.4727 4.07896C5.76468 4.47575 5.72303 5.02633 5.37468 5.37469C5.02632 5.72304 4.47574 5.76469 4.07895 5.47271C3.85475 6.2987 4.18227 7.17568 4.89303 7.65249C5.60379 8.1293 6.53947 8.09975 7.21871 7.57902C7.89796 7.0583 8.16948 6.1624 7.89359 5.3522C7.61771 4.54201 6.85587 3.99799 5.99999 4Z" fill="#9CA3AF"/>
</g>
</svg>
