<svg width="41" height="41" viewBox="0 0 41 41" fill="none" xmlns="http://www.w3.org/2000/svg">
<circle cx="20.8919" cy="20.4639" r="20" fill="#DC2626"/>
<path fill-rule="evenodd" clip-rule="evenodd" d="M23.4982 20.4639L27.4071 16.5549C27.8868 16.0752 27.8868 15.2975 27.4071 14.8174L26.5384 13.9486C26.0587 13.4689 25.281 13.4689 24.8009 13.9486L20.8919 17.8576L16.9829 13.9486C16.5032 13.4689 15.7255 13.4689 15.2454 13.9486L14.3767 14.8174C13.897 15.2971 13.897 16.0748 14.3767 16.5549L18.2857 20.4639L14.3767 24.3729C13.897 24.8525 13.897 25.6303 14.3767 26.1104L15.2454 26.9791C15.7251 27.4588 16.5032 27.4588 16.9829 26.9791L20.8919 23.0701L24.8009 26.9791C25.2806 27.4588 26.0587 27.4588 26.5384 26.9791L27.4071 26.1104C27.8868 25.6307 27.8868 24.8529 27.4071 24.3729L23.4982 20.4639Z" fill="white"/>
</svg>
