<svg width="41" height="41" viewBox="0 0 41 41" fill="none" xmlns="http://www.w3.org/2000/svg">
<circle cx="20.8919" cy="20.1125" r="20" fill="#0EA5E9"/>
<path fill-rule="evenodd" clip-rule="evenodd" d="M17.9232 26.6839H18.7044V21.041H17.9232C17.4917 21.041 17.1419 20.6913 17.1419 20.2598V18.3937C17.1419 17.9623 17.4917 17.6125 17.9232 17.6125H22.2982C22.7296 17.6125 23.0794 17.9623 23.0794 18.3937V26.6839H23.8607C24.2921 26.6839 24.6419 27.0337 24.6419 27.4652V29.3312C24.6419 29.7627 24.2921 30.1125 23.8607 30.1125H17.9232C17.4917 30.1125 17.1419 29.7627 17.1419 29.3312V27.4652C17.1419 27.0337 17.4917 26.6839 17.9232 26.6839ZM20.8919 10.1125C19.3386 10.1125 18.0794 11.3717 18.0794 12.925C18.0794 14.4783 19.3386 15.7375 20.8919 15.7375C22.4452 15.7375 23.7044 14.4783 23.7044 12.925C23.7044 11.3717 22.4452 10.1125 20.8919 10.1125Z" fill="white"/>
</svg>
