<svg width="41" height="41" viewBox="0 0 41 41" fill="none" xmlns="http://www.w3.org/2000/svg">
<circle cx="20.8919" cy="20.8149" r="20" fill="#F59E0B"/>
<path fill-rule="evenodd" clip-rule="evenodd" d="M30.6668 27.2042C31.3077 28.3151 30.5032 29.7038 29.2232 29.7038H12.5605C11.2779 29.7038 10.4772 28.313 11.1168 27.2042L19.4483 12.7588C20.0895 11.6474 21.6955 11.6494 22.3356 12.7588L30.6668 27.2042ZM20.8919 24.2177C20.0098 24.2177 19.2947 24.9328 19.2947 25.8149C19.2947 26.697 20.0098 27.4121 20.8919 27.4121C21.774 27.4121 22.4891 26.697 22.4891 25.8149C22.4891 24.9328 21.774 24.2177 20.8919 24.2177ZM19.3755 18.4765L19.6331 23.1987C19.6451 23.4197 19.8278 23.5927 20.0491 23.5927H21.7347C21.956 23.5927 22.1387 23.4197 22.1508 23.1987L22.4083 18.4765C22.4214 18.2378 22.2313 18.0371 21.9923 18.0371H19.7915C19.5525 18.0371 19.3625 18.2378 19.3755 18.4765Z" fill="white"/>
</svg>
