<svg width="48" height="48" viewBox="0 0 48 48" fill="none" xmlns="http://www.w3.org/2000/svg">
<g id="Arrows, Chevrons &#38; Carets/01 Light/angle-right Copy 3">
<path id="Users, People &#38; Contacts/03 Solid/user-circle" fill-rule="evenodd" clip-rule="evenodd" d="M24 0.75C11.1562 0.75 0.75 11.1562 0.75 24C0.75 36.8437 11.1562 47.25 24 47.25C36.8437 47.25 47.25 36.8437 47.25 24C47.25 11.1562 36.8437 0.75 24 0.75ZM24.0001 9.75C28.5563 9.75 32.2501 13.4437 32.2501 18C32.2501 22.5562 28.5563 26.25 24.0001 26.25C19.4438 26.25 15.7501 22.5562 15.7501 18C15.7501 13.4437 19.4438 9.75 24.0001 9.75ZM24.0001 42C18.497 42 13.5657 39.5062 10.2657 35.6062C12.0282 32.2875 15.4782 30 19.5001 30C19.7251 30 19.9501 30.0375 20.1657 30.1031C21.3845 30.4969 22.6595 30.75 24.0001 30.75C25.3407 30.75 26.6251 30.4969 27.8345 30.1031C28.0501 30.0375 28.2751 30 28.5001 30C32.522 30 35.972 32.2875 37.7345 35.6062C34.4345 39.5062 29.5032 42 24.0001 42Z" fill="#6B7280"/>
</g>
</svg>
