<svg width="16" height="16" viewBox="0 0 16 16" fill="none" xmlns="http://www.w3.org/2000/svg">
<path id="Icon" fill-rule="evenodd" clip-rule="evenodd" d="M16 8C16 6.82188 15.2594 5.81563 14.2156 5.425C14.675 4.4125 14.4906 3.17813 13.6562 2.34375C12.8219 1.50937 11.5875 1.325 10.575 1.78438C10.1844 0.740625 9.17813 0 8 0C6.82188 0 5.81563 0.740625 5.425 1.78438C4.4125 1.325 3.175 1.50937 2.34375 2.34375C1.50937 3.17813 1.325 4.4125 1.78438 5.425C0.740625 5.81563 0 6.82188 0 8C0 9.17813 0.740625 10.1844 1.78438 10.575C1.325 11.5875 1.50937 12.825 2.34375 13.6562C3.175 14.4875 4.40938 14.6781 5.425 14.2156C5.81563 15.2563 6.82188 16 8 16C9.17813 16 10.1844 15.2594 10.575 14.2156C11.5938 14.6781 12.825 14.4875 13.6562 13.6562C14.4906 12.8219 14.675 11.5875 14.2156 10.575C15.2594 10.1844 16 9.17813 16 8ZM11.475 6.61719L7.38 10.6794C7.24531 10.8131 7.0275 10.8122 6.89406 10.6775L4.52781 8.29219C4.39406 8.1575 4.395 7.93969 4.52969 7.80594L5.34312 6.99906C5.47781 6.86531 5.69562 6.86625 5.82937 7.00094L7.14656 8.32875L10.1841 5.31563C10.3188 5.18188 10.5366 5.18281 10.67 5.3175L11.4769 6.13094C11.6106 6.26594 11.61 6.48375 11.475 6.61719Z" fill="#A100FF"/>
</svg>
