<?xml version="1.0" encoding="UTF-8"?>
<svg width="16px" height="15px" viewBox="0 0 16 15" version="1.1" xmlns="http://www.w3.org/2000/svg" xmlns:xlink="http://www.w3.org/1999/xlink">
    <!-- Generator: Sketch 52.6 (67491) - http://www.bohemiancoding.com/sketch -->
    <desc>Created with Sketch.</desc>
    <g id="Styles" stroke="none" stroke-width="1" fill="none" fill-rule="evenodd">
        <g id="Checkboxes" transform="translate(-68.000000, -836.000000)" fill="#FF4040" fill-rule="nonzero">
            <g id="Automation" transform="translate(58.000000, 547.000000)">
                <g id="Robot" transform="translate(10.000000, 289.000000)">
                    <path d="M8.58142915,3.05339163 C8.58142886,3.05558431 8.58142866,3.05777924 8.58142866,3.05997637 L8.58143037,4.73684211 L12.3524618,4.73684211 C13.4570313,4.73684211 14.3524618,5.63227261 14.3524618,6.73684211 L14.3524618,8.68421053 L16,8.68421053 L16,11.0526316 L14.3524618,11.0526316 L14.3524618,13 C14.3524618,14.1045695 13.4570313,15 12.3524618,15 L3.54079708,15 C2.43622758,15 1.54079708,14.1045695 1.54079708,13 L1.54079708,11.0526316 L-8.09796674e-13,11.0526316 L-8.09796674e-13,8.68421053 L1.54079708,8.68421053 L1.54079708,6.73684211 C1.54079708,5.63227261 2.43622758,4.73684211 3.54079708,4.73684211 L7.58119769,4.73684211 L7.58119769,3.10139506 C6.90356992,2.91745098 6.40583234,2.30550854 6.40583234,1.57894737 C6.40583234,0.706918816 7.12282955,0 8.00729043,0 C8.89175131,0 9.60874852,0.706918816 9.60874852,1.57894737 C9.60874852,2.25148313 9.18228016,2.82581198 8.58142915,3.05339163 Z M5.5,10 C6.32842712,10 7,9.32842712 7,8.5 C7,7.67157288 6.32842712,7 5.5,7 C4.67157288,7 4,7.67157288 4,8.5 C4,9.32842712 4.67157288,10 5.5,10 Z M10.5,10 C11.3284271,10 12,9.32842712 12,8.5 C12,7.67157288 11.3284271,7 10.5,7 C9.67157288,7 9,7.67157288 9,8.5 C9,9.32842712 9.67157288,10 10.5,10 Z M11,14 L11,12 L5,12 L5,14 L11,14 Z" id="Combined-Shape"></path>
                </g>
            </g>
        </g>
    </g>
</svg>
