<svg width="16" height="16" viewBox="0 0 16 16" fill="none" xmlns="http://www.w3.org/2000/svg">
<g id="\ Common/01 Light/angle-down">
<path id="Worfklow, Status &#38; UI/02 Regular/times" fill-rule="evenodd" clip-rule="evenodd" d="M9.48751 8.00008L12.8538 4.63383C13.0484 4.43914 13.0484 4.1232 12.8538 3.9282L12.0716 3.14602C11.8769 2.95133 11.5609 2.95133 11.3659 3.14602L8.00001 6.51258L4.63376 3.14633C4.43907 2.95164 4.12313 2.95164 3.92813 3.14633L3.14626 3.9282C2.95157 4.12289 2.95157 4.43883 3.14626 4.63383L6.51251 8.00008L3.14626 11.3663C2.95157 11.561 2.95157 11.877 3.14626 12.072L3.92845 12.8541C4.12313 13.0488 4.43907 13.0488 4.63407 12.8541L8.00001 9.48758L11.3663 12.8538C11.5609 13.0485 11.8769 13.0485 12.0719 12.8538L12.8541 12.0716C13.0488 11.877 13.0488 11.561 12.8541 11.366L9.48751 8.00008Z" fill="#15181B"/>
</g>
</svg>
