<svg width="16" height="16" viewBox="0 0 16 16" fill="none" xmlns="http://www.w3.org/2000/svg">
<g id="Workflow, Status &#38; UI/01 Light/layer-group">
<path id="Icon" fill-rule="evenodd" clip-rule="evenodd" d="M15.9844 8.01567C15.9844 7.70441 15.8032 7.42495 15.5238 7.30425L12.413 5.9547L15.5225 4.60546C15.8032 4.48413 15.9844 4.20499 15.9844 3.89404C15.9844 3.58308 15.8032 3.30394 15.5238 3.18324L8.49718 0.134817C8.18217 -0.00366293 7.82007 -0.00397483 7.50319 0.134193L0.477535 3.18293C0.196834 3.30425 0.015625 3.58339 0.015625 3.89435C0.015625 4.2053 0.196834 4.48445 0.476288 4.60515L3.58678 5.95501L0.477223 7.30425C0.196834 7.42526 0.015625 7.70441 0.015625 8.01567C0.015625 8.32663 0.196834 8.60577 0.476288 8.72647L3.58646 10.0757L0.477223 11.4246C0.196834 11.5463 0.015625 11.8254 0.015625 12.1367C0.015625 12.4476 0.196834 12.7268 0.476288 12.8475L7.50381 15.8965C7.66033 15.9644 7.8291 15.9996 7.99972 15.9998C8.16876 15.9998 8.33781 15.9655 8.49563 15.8965L15.5222 12.8481C15.8029 12.7268 15.9841 12.4476 15.9841 12.1367C15.9841 11.8254 15.8029 11.546 15.5235 11.4253L12.4133 10.076L15.5225 8.7271C15.8032 8.60577 15.9844 8.32663 15.9844 8.01567ZM1.42631 3.89435L7.91457 1.07922L7.91551 1.0786C7.96978 1.05645 8.02935 1.05489 8.08549 1.07922L14.5738 3.89435L8.08549 6.70979C8.02904 6.7338 7.96884 6.7338 7.91457 6.70979L1.42631 3.89435ZM14.5738 12.1367L8.08549 14.9518C8.02904 14.9758 7.96884 14.9758 7.91457 14.9518L1.42631 12.1364L4.88081 10.6374L7.50412 11.7755C7.66065 11.8434 7.82941 11.8786 8.00003 11.8788C8.16908 11.8788 8.33812 11.8444 8.49594 11.7755L11.1193 10.6374L14.5738 12.1367ZM8.08549 10.8308C8.02904 10.8548 7.96884 10.8548 7.91457 10.8308L1.42631 8.01536L4.88112 6.51642L7.50412 7.65482C7.66065 7.72272 7.82941 7.75786 8.00003 7.75805C8.16908 7.75805 8.33812 7.72374 8.49594 7.65482L11.1189 6.51673L14.5738 8.01599L8.08549 10.8308Z" fill="#374151"/>
</g>
</svg>
