<svg width="16" height="16" viewBox="0 0 16 16" fill="none" xmlns="http://www.w3.org/2000/svg">
<g id="Workflow, Status &#38; UI/03 Solid/trash">
<path id="Icon" fill-rule="evenodd" clip-rule="evenodd" d="M14.5 1.00001H10.75L10.4563 0.415631C10.3293 0.1608 10.0691 -0.000198675 9.78438 5.50847e-06H6.2125C5.92835 -0.00108684 5.66858 0.160359 5.54375 0.415631L5.25 1.00001H1.5C1.22386 1.00001 1 1.22386 1 1.50001V2.50001C1 2.77615 1.22386 3.00001 1.5 3.00001H14.5C14.7761 3.00001 15 2.77615 15 2.50001V1.50001C15 1.22386 14.7761 1.00001 14.5 1.00001ZM2.6625 14.5938C2.712 15.3842 3.36742 15.9999 4.15937 16H11.8406C12.6326 15.9999 13.288 15.3842 13.3375 14.5938L14 4.00001H2L2.6625 14.5938Z" fill="#15181B"/>
</g>
</svg>
