<svg xmlns="http://www.w3.org/2000/svg" width="16" height="16" viewBox="0 0 16 16" fill="none">
  <path fill-rule="evenodd" clip-rule="evenodd" d="M8.99902 4.25V0H2.74902C2.3334 0 1.99902 0.334375 1.99902 0.75V15.25C1.99902 15.6656 2.3334 16 2.74902 16H13.249C13.6646 16 13.999 15.6656 13.999 15.25V5H9.74902C9.33652 5 8.99902 4.6625 8.99902 4.25ZM11.0359 11.0003H8.99902V13.5003C8.99902 13.7766 8.77527 14.0003 8.49902 14.0003H7.49902C7.22277 14.0003 6.99902 13.7766 6.99902 13.5003V11.0003H4.96215C4.5159 11.0003 4.29309 10.46 4.60996 10.1453L7.62309 7.15469C7.8309 6.94813 8.16652 6.94813 8.37434 7.15469L11.3875 10.1453C11.7046 10.46 11.4821 11.0003 11.0359 11.0003ZM13.7803 3.28125L10.7209 0.21875C10.5803 0.078125 10.3896 0 10.1896 0H9.99902V4H13.999V3.80938C13.999 3.6125 13.9209 3.42188 13.7803 3.28125Z" fill="#9CA3AF"/>
</svg>